#N canvas 68 78 617 924 10;
#X obj 126 301 *~ 20;
#X obj 126 844 outlet~;
#X obj 126 779 *~;
#X obj 126 249 *~ 3;
#X obj 120 136 t b f;
#X obj 120 45 + 2;
#N canvas 217 156 560 540 wave-crossfade 0;
#X obj 106 80 inlet~;
#X obj 165 78 inlet~;
#X obj 396 83 inlet;
#X obj 106 284 outlet~;
#X obj 106 153 osc~;
#X obj 106 215 c_cpfade;
#X obj 396 105 - 1;
#N canvas 672 359 450 300 triangle 0;
#X obj 63 40 inlet~;
#X obj 63 99 phasor~;
#X obj 130 77 *~ -1;
#X obj 130 100 phasor~;
#X obj 63 121 *~ 2;
#X obj 63 143 -~ 1;
#X obj 63 165 clip~ 0 1;
#X obj 130 122 *~ 2;
#X obj 130 144 -~ 1;
#X obj 130 166 clip~ 0 1;
#X obj 63 230 *~ 0.75;
#X obj 63 200 +~;
#X obj 63 252 outlet~;
#X connect 0 0 1 0;
#X connect 0 0 2 0;
#X connect 1 0 4 0;
#X connect 2 0 3 0;
#X connect 3 0 7 0;
#X connect 4 0 5 0;
#X connect 5 0 6 0;
#X connect 6 0 11 0;
#X connect 7 0 8 0;
#X connect 8 0 9 0;
#X connect 9 0 11 1;
#X connect 10 0 12 0;
#X connect 11 0 10 0;
#X restore 165 153 pd triangle;
#X connect 0 0 4 0;
#X connect 1 0 7 0;
#X connect 2 0 6 0;
#X connect 4 0 5 0;
#X connect 5 0 3 0;
#X connect 6 0 5 2;
#X connect 7 0 5 1;
#X restore 126 622 pd wave-crossfade;
#X obj 18 194 f;
#X obj 18 216 sig~;
#X obj 126 494 *~;
#X obj 126 586 +~;
#X obj 18 165 t b f;
#X obj 18 114 * -1;
#X obj 18 136 + 400;
#X obj 120 108 f;
#X obj 120 67 t b f;
#X obj 141 422 line~;
#X obj 141 400 pack 0 150;
#X obj 231 118 / 320;
#X obj 231 140 * 40;
#N canvas 840 286 512 443 tremolo 0;
#X obj 209 56 / 320;
#X obj 209 122 pack f 50;
#X obj 209 146 line~;
#X obj 209 171 osc~;
#X obj 209 100 + 0.01;
#X obj 209 196 *~ 0.15;
#X obj 310 105 sel 1 2 3 4 5;
#X obj 47 289 c_cpfade;
#X obj 47 41 inlet~;
#X obj 69 233 *~;
#X obj 47 376 outlet~;
#X obj 92 136 loadbang;
#X obj 209 78 * 40;
#X msg 92 158 0.3;
#X msg 420 188 0.35;
#X msg 352 180 0.15;
#X obj 325 155 t b b;
#X msg 325 202 0.4;
#X obj 387 153 t b b;
#X msg 389 220 0.45;
#X msg 461 272 0.7;
#X msg 310 128 0.1;
#X obj 209 35 r \$1-x-centroid;
#X obj 310 62 r \$1-num-touches;
#X connect 0 0 12 0;
#X connect 1 0 2 0;
#X connect 2 0 3 0;
#X connect 3 0 5 0;
#X connect 4 0 1 0;
#X connect 5 0 9 1;
#X connect 6 0 21 0;
#X connect 6 0 13 0;
#X connect 6 1 16 0;
#X connect 6 2 18 0;
#X connect 6 3 20 0;
#X connect 7 0 10 0;
#X connect 8 0 7 0;
#X connect 8 0 9 0;
#X connect 9 0 7 1;
#X connect 11 0 13 0;
#X connect 12 0 4 0;
#X connect 13 0 7 2;
#X connect 14 0 5 1;
#X connect 15 0 5 1;
#X connect 16 0 17 0;
#X connect 16 1 15 0;
#X connect 17 0 7 2;
#X connect 18 0 19 0;
#X connect 18 1 14 0;
#X connect 19 0 7 2;
#X connect 20 0 5 1;
#X connect 21 0 5 1;
#X connect 22 0 0 0;
#X connect 23 0 6 0;
#X restore 126 650 pd tremolo;
#X obj 126 279 sdm-bpnoise 440 40;
#X obj 231 240 spigot;
#X obj 264 204 t f f;
#X obj 291 231 sel 0;
#X msg 291 253 50;
#X obj 309 405 t f f;
#X obj 141 469 *~ 150;
#X obj 336 431 sel 0 1;
#X msg 355 480 150;
#X obj 260 532 line;
#X obj 264 182 > 2;
#X obj 231 162 + 15;
#X obj 270 359 t f f;
#X obj 435 37 switch~;
#X obj 436 8 inlet;
#X obj 141 751 sdm-expenv 30 40 650 175;
#X obj 309 383 > 2;
#X obj 126 692 lop~ 8000;
#X obj 247 684 line;
#X obj 247 661 pack f 2000;
#X obj 260 508 pack f 1000;
#X obj 247 610 * 5;
#X obj 465 393 r zero-x-centroid;
#X msg 336 454 75;
#X obj 120 21 r \$1-num-touches;
#X obj 231 96 r \$1-x-centroid;
#X obj 264 158 r \$1-num-touches;
#X obj 270 337 r \$1-num-touches;
#X obj 141 724 r \$1-trigger;
#X obj 18 86 r \$1-y-centroid;
#X obj 174 447 r \$1-mod-index;
#X obj 336 508 s \$1-mod-index;
#X connect 0 0 9 0;
#X connect 2 0 1 0;
#X connect 3 0 21 0;
#X connect 4 0 7 0;
#X connect 4 1 3 1;
#X connect 5 0 15 0;
#X connect 6 0 20 0;
#X connect 7 0 8 0;
#X connect 8 0 3 0;
#X connect 8 0 10 1;
#X connect 9 0 10 0;
#X connect 10 0 6 0;
#X connect 10 0 6 1;
#X connect 11 0 7 0;
#X connect 11 1 7 1;
#X connect 12 0 13 0;
#X connect 13 0 11 0;
#X connect 14 0 4 0;
#X connect 15 0 14 0;
#X connect 15 1 14 1;
#X connect 16 0 27 0;
#X connect 17 0 16 0;
#X connect 18 0 19 0;
#X connect 19 0 32 0;
#X connect 20 0 38 0;
#X connect 21 0 0 0;
#X connect 22 0 21 1;
#X connect 23 0 22 1;
#X connect 23 1 24 0;
#X connect 24 0 25 0;
#X connect 25 0 21 1;
#X connect 26 0 41 0;
#X connect 26 1 28 0;
#X connect 27 0 9 1;
#X connect 28 0 44 0;
#X connect 28 1 29 0;
#X connect 29 0 52 0;
#X connect 30 0 6 2;
#X connect 31 0 23 0;
#X connect 32 0 22 0;
#X connect 33 0 17 0;
#X connect 33 1 37 0;
#X connect 35 0 34 0;
#X connect 36 0 2 1;
#X connect 37 0 26 0;
#X connect 38 0 2 0;
#X connect 39 0 38 1;
#X connect 40 0 39 0;
#X connect 41 0 30 0;
#X connect 42 0 40 0;
#X connect 44 0 52 0;
#X connect 45 0 5 0;
#X connect 46 0 18 0;
#X connect 47 0 31 0;
#X connect 48 0 33 0;
#X connect 49 0 36 0;
#X connect 50 0 12 0;
#X connect 51 0 27 1;
#X connect 51 0 42 0;
