#N canvas 194 199 637 480 10;
#N canvas 645 265 557 410 excitation~ 1;
#X obj 39 35 inlet;
#X text 81 46 trigger;
#X obj 39 265 *~;
#X obj 39 308 outlet~;
#X obj 54 236 noise~;
#X obj 200 13 inlet;
#X obj 200 44 sel 0 1 2 3 4 5;
#N canvas 148 501 450 300 ad-1 0;
#X obj 53 35 inlet;
#X msg 49 77 10;
#X obj 41 136 outlet;
#X obj 89 134 outlet;
#X msg 76 76 20;
#X connect 0 0 1 0;
#X connect 0 0 4 0;
#X connect 1 0 2 0;
#X connect 4 0 3 0;
#X restore 214 71 pd ad-1;
#N canvas 148 501 450 300 ad-2 0;
#X obj 53 35 inlet;
#X obj 41 136 outlet;
#X obj 89 134 outlet;
#X msg 49 77 50;
#X msg 77 76 250;
#X connect 0 0 3 0;
#X connect 0 0 4 0;
#X connect 3 0 1 0;
#X connect 4 0 2 0;
#X restore 225 96 pd ad-2;
#N canvas 148 501 450 300 ad-3 0;
#X obj 53 35 inlet;
#X obj 41 136 outlet;
#X obj 89 134 outlet;
#X msg 49 77 300;
#X msg 76 76 450;
#X connect 0 0 3 0;
#X connect 0 0 4 0;
#X connect 3 0 1 0;
#X connect 4 0 2 0;
#X restore 274 72 pd ad-3;
#N canvas 148 501 450 300 ad-4 0;
#X obj 53 35 inlet;
#X obj 41 136 outlet;
#X obj 89 134 outlet;
#X msg 49 77 1000;
#X msg 89 76 1500;
#X connect 0 0 3 0;
#X connect 0 0 4 0;
#X connect 3 0 1 0;
#X connect 4 0 2 0;
#X restore 285 97 pd ad-4;
#N canvas 148 501 450 300 ad-5 0;
#X obj 53 35 inlet;
#X obj 41 136 outlet;
#X obj 89 134 outlet;
#X msg 35 73 2000;
#X msg 76 76 3000;
#X connect 0 0 3 0;
#X connect 0 0 4 0;
#X connect 3 0 1 0;
#X connect 4 0 2 0;
#X restore 332 69 pd ad-5;
#N canvas 148 501 450 300 ad-0 0;
#X obj 53 35 inlet;
#X obj 41 136 outlet;
#X msg 44 77 25;
#X msg 76 76 150;
#X connect 0 0 2 0;
#X connect 0 0 3 0;
#X connect 2 0 1 0;
#X restore 136 76 pd ad-0;
#X obj 38 195 sdm-expenv 25 40 150 175;
#X connect 0 0 13 0;
#X connect 2 0 3 0;
#X connect 4 0 2 1;
#X connect 5 0 6 0;
#X connect 6 0 12 0;
#X connect 6 1 7 0;
#X connect 6 2 8 0;
#X connect 6 3 9 0;
#X connect 6 4 10 0;
#X connect 6 5 11 0;
#X connect 7 0 13 1;
#X connect 7 1 13 3;
#X connect 8 0 13 1;
#X connect 8 1 13 3;
#X connect 9 0 13 1;
#X connect 9 1 13 3;
#X connect 10 0 13 1;
#X connect 10 1 13 3;
#X connect 11 0 13 1;
#X connect 11 1 13 3;
#X connect 12 0 13 1;
#X connect 13 0 2 0;
#X restore 38 52 pd excitation~;
#N canvas 296 279 772 507 delay-portion 1;
#X obj 257 30 block~ 1;
#X obj 41 5 inlet;
#X text 80 8 frequency;
#X obj 41 94 t b f;
#X msg 41 116 1;
#X obj 41 138 /;
#X obj 41 160 * 1000;
#X obj 41 268 lop~ 4000;
#X obj 291 132 inlet;
#X obj 41 358 *~ 0.99;
#X obj 367 201 inlet;
#X text 330 130 cutoff frequency;
#X text 408 202 decay;
#X obj -102 229 inlet~;
#X obj 41 425 outlet~;
#X floatatom -15 29 5 0 0 0 - - -;
#X obj 41 236 vd~ \$0-dl 12;
#X obj -102 412 delwrite~ \$0-dl 1000;
#X obj 41 205 line~;
#X obj 41 182 pack f 100;
#X obj 139 32 inlet;
#X obj 41 67 +;
#X obj 83 30 f;
#X obj 41 29 t f f;
#X obj 139 60 t b f;
#X connect 1 0 23 0;
#X connect 3 0 4 0;
#X connect 3 1 5 1;
#X connect 4 0 5 0;
#X connect 5 0 6 0;
#X connect 6 0 19 0;
#X connect 7 0 9 0;
#X connect 8 0 7 1;
#X connect 9 0 14 0;
#X connect 9 0 17 0;
#X connect 10 0 9 1;
#X connect 13 0 17 0;
#X connect 15 0 3 0;
#X connect 16 0 7 0;
#X connect 18 0 16 0;
#X connect 19 0 18 0;
#X connect 20 0 24 0;
#X connect 21 0 3 0;
#X connect 22 0 21 0;
#X connect 23 0 21 0;
#X connect 23 1 22 1;
#X connect 24 0 22 0;
#X connect 24 1 21 1;
#X restore 38 269 pd delay-portion;
#X obj 69 117 * -1;
#X obj 38 405 outlet~;
#X floatatom 131 144 5 0 0 0 - - -;
#X obj 38 8 r \$1-trigger;
#X obj 69 89 r \$1-y-centroid;
#X obj 287 21 inlet;
#X obj 287 43 switch~;
#X obj 180 66 r \$1-x-centroid;
#X obj 69 161 t f f;
#N canvas 840 286 512 443 tremolo 0;
#X obj 209 56 / 320;
#X obj 209 122 pack f 50;
#X obj 209 146 line~;
#X obj 209 171 osc~;
#X obj 209 100 + 0.01;
#X obj 209 196 *~ 0.15;
#X obj 310 105 sel 1 2 3 4 5;
#X obj 47 289 c_cpfade;
#X obj 47 41 inlet~;
#X obj 69 233 *~;
#X obj 47 376 outlet~;
#X obj 92 136 loadbang;
#X msg 92 158 0.3;
#X msg 352 180 0.15;
#X obj 325 155 t b b;
#X msg 325 178 0.4;
#X obj 387 153 t b b;
#X msg 353 315 0.7;
#X msg 310 128 0.1;
#X obj 209 20 r \$1-x-centroid;
#X obj 310 62 r \$1-num-touches;
#X msg 420 188 0.45;
#X msg 389 220 0.55;
#X obj 353 283 t b b;
#X obj 209 78 * 50;
#X msg 381 314 0.8;
#X connect 0 0 24 0;
#X connect 1 0 2 0;
#X connect 2 0 3 0;
#X connect 3 0 5 0;
#X connect 4 0 1 0;
#X connect 5 0 9 1;
#X connect 6 0 18 0;
#X connect 6 0 12 0;
#X connect 6 1 14 0;
#X connect 6 2 16 0;
#X connect 6 3 23 0;
#X connect 7 0 10 0;
#X connect 8 0 7 0;
#X connect 8 0 9 0;
#X connect 9 0 7 1;
#X connect 11 0 12 0;
#X connect 12 0 7 2;
#X connect 13 0 5 1;
#X connect 14 0 15 0;
#X connect 14 1 13 0;
#X connect 15 0 7 2;
#X connect 16 0 22 0;
#X connect 16 1 21 0;
#X connect 17 0 5 1;
#X connect 18 0 5 1;
#X connect 19 0 0 0;
#X connect 20 0 6 0;
#X connect 21 0 5 1;
#X connect 22 0 7 2;
#X connect 23 0 17 0;
#X connect 23 1 25 0;
#X connect 24 0 4 0;
#X connect 25 0 7 2;
#X restore 38 320 pd tremolo;
#X obj 69 139 + 400;
#X floatatom 180 13 5 0 0 0 - - -;
#X obj 233 122 / 100;
#X floatatom 235 96 5 0 0 0 - - -;
#X obj 180 88 / 320;
#X obj 180 182 * 3000;
#X obj 96 184 / 2;
#X obj 180 207 +;
#X obj 180 160 pow 1.7;
#X obj 332 121 r \$1-num-touches;
#X obj 332 149 > 1;
#X obj 332 224 t b b;
#X msg 359 276 0;
#X msg 332 275 1;
#X obj 332 196 sel 1;
#X obj 332 336 * 200;
#X obj 332 315 sdm-expenv-control 10 40 10 175;
#X obj 360 251 del 50;
#X connect 0 0 1 0;
#X connect 1 0 11 0;
#X connect 2 0 12 0;
#X connect 4 0 1 4;
#X connect 5 0 0 0;
#X connect 6 0 2 0;
#X connect 7 0 8 0;
#X connect 9 0 16 0;
#X connect 10 0 1 1;
#X connect 10 1 18 0;
#X connect 11 0 3 0;
#X connect 12 0 10 0;
#X connect 13 0 16 0;
#X connect 14 0 20 1;
#X connect 15 0 14 0;
#X connect 16 0 20 0;
#X connect 17 0 19 0;
#X connect 18 0 19 1;
#X connect 19 0 1 3;
#X connect 20 0 17 0;
#X connect 21 0 22 0;
#X connect 21 0 0 1;
#X connect 22 0 26 0;
#X connect 23 0 25 0;
#X connect 23 1 29 0;
#X connect 24 0 28 0;
#X connect 25 0 28 0;
#X connect 26 0 23 0;
#X connect 27 0 1 2;
#X connect 28 0 27 0;
#X connect 29 0 24 0;
