#N canvas 664 291 726 440 10;
#X obj 129 24 inlet attacktime;
#X obj 252 25 inlet attackslope;
#X obj 384 23 inlet decaytime;
#X obj 507 24 inlet decayslope;
#X obj 58 208 pack 0 0;
#X obj 149 368 / 100;
#X obj 195 228 t b b;
#X obj 27 129 t b b b b b;
#X obj 129 74 t f f;
#X obj 195 198 del \$1;
#X obj 42 262 pack 1 \$1;
#X obj 149 341 f \$2;
#X obj 195 257 pack 0 \$3;
#X obj 222 322 f \$4;
#X obj 27 71 sel 0 1;
#X obj 27 24 inlet;
#X obj 94 317 line;
#X obj 94 407 outlet;
#X obj 90 368 pow 1;
#X connect 0 0 8 0;
#X connect 1 0 11 1;
#X connect 2 0 12 1;
#X connect 3 0 13 1;
#X connect 4 0 16 0;
#X connect 5 0 18 1;
#X connect 6 0 12 0;
#X connect 6 1 13 0;
#X connect 7 1 10 0;
#X connect 7 2 4 0;
#X connect 7 4 11 0;
#X connect 8 0 10 1;
#X connect 8 1 9 1;
#X connect 9 0 6 0;
#X connect 10 0 16 0;
#X connect 11 0 5 0;
#X connect 12 0 16 0;
#X connect 13 0 5 0;
#X connect 14 0 6 0;
#X connect 14 1 7 0;
#X connect 15 0 14 0;
#X connect 16 0 18 0;
#X connect 18 0 17 0;
