#N canvas 676 347 450 300 10;
#X obj 39 34 noise~;
#X obj 183 33 inlet q;
#X obj 39 204 outlet~;
#X obj 39 111 vcf~ \$1 \$2;
#X obj 99 33 inlet~ freq;
#X connect 0 0 3 0;
#X connect 1 0 3 2;
#X connect 3 0 2 0;
#X connect 4 0 3 1;
