#N canvas 580 129 781 675 10;
#X declare -path ./lib;
#X obj 25 593 dac~;
#X obj 21 88 declare -path ./lib;
#X text 20 16 _main.pd file contains the main interface to creating
sounds;
#X text 20 71 lib contains associated files;
#X text 20 36 x: 320;
#X text 20 50 y: 400;
#X floatatom 632 32 5 0 0 0 - - -;
#X obj 518 17 tgl 15 0 empty empty empty 17 7 0 10 -262144 -1 -1 0
1;
#X obj 610 71 f;
#X obj 518 37 t f b;
#X floatatom 405 84 5 0 0 0 - - -;
#X floatatom 282 78 5 0 0 0 - - -;
#N canvas 117 62 748 736 voice-alloc 0;
#X obj 30 39 r x-centroid;
#X obj 30 64 route 0 1 2 3;
#X obj 178 62 route 0 1 2 3;
#X obj 202 247 route 0 1 2 3;
#X obj 482 63 route 0 1 2 3;
#X obj 178 37 r y-centroid;
#X obj 202 222 r num-touches;
#X obj 482 38 r sharpness;
#X obj 30 168 s zero-x-centroid;
#X obj 48 144 s one-x-centroid;
#X obj 67 118 s two-x-centroid;
#X obj 86 95 s three-x-centroid;
#X obj 235 93 s three-y-centroid;
#X obj 214 116 s two-y-centroid;
#X obj 196 142 s one-y-centroid;
#X obj 178 166 s zero-y-centroid;
#X obj 229 596 s zero-num-touches;
#X obj 247 485 s one-num-touches;
#X obj 266 381 s two-num-touches;
#X obj 312 304 s three-num-touches;
#X obj 538 94 s three-sharpness;
#X obj 519 117 s two-sharpness;
#X obj 500 143 s one-sharpness;
#X obj 482 167 s zero-sharpness;
#X obj 31 251 route 0 1 2 3;
#X obj 31 217 r trigger;
#X obj 31 355 s zero-trigger;
#X obj 49 331 s one-trigger;
#X obj 68 305 s two-trigger;
#X obj 87 282 s three-trigger;
#X obj 202 572 t f f;
#X obj 202 596 > 0;
#X obj 202 645 s zero-trigger;
#X obj 202 619 change;
#X obj 220 462 t f f;
#X obj 220 486 > 0;
#X obj 220 509 change;
#X obj 220 535 s one-trigger;
#X obj 239 356 t f f;
#X obj 239 380 > 0;
#X obj 239 403 change;
#X obj 285 281 t f f;
#X obj 285 305 > 0;
#X obj 285 328 change;
#X obj 239 429 s two-trigger;
#X obj 285 354 s three-trigger;
#X connect 0 0 1 0;
#X connect 1 0 8 0;
#X connect 1 1 9 0;
#X connect 1 2 10 0;
#X connect 1 3 11 0;
#X connect 2 0 15 0;
#X connect 2 1 14 0;
#X connect 2 2 13 0;
#X connect 2 3 12 0;
#X connect 3 0 30 0;
#X connect 3 1 34 0;
#X connect 3 2 38 0;
#X connect 3 3 41 0;
#X connect 4 0 23 0;
#X connect 4 1 22 0;
#X connect 4 2 21 0;
#X connect 4 3 20 0;
#X connect 5 0 2 0;
#X connect 6 0 3 0;
#X connect 7 0 4 0;
#X connect 24 0 26 0;
#X connect 24 1 27 0;
#X connect 24 2 28 0;
#X connect 24 3 29 0;
#X connect 30 0 31 0;
#X connect 30 1 16 0;
#X connect 31 0 33 0;
#X connect 33 0 32 0;
#X connect 34 0 35 0;
#X connect 34 1 17 0;
#X connect 35 0 36 0;
#X connect 36 0 37 0;
#X connect 38 0 39 0;
#X connect 38 1 18 0;
#X connect 39 0 40 0;
#X connect 40 0 44 0;
#X connect 41 0 42 0;
#X connect 41 1 19 0;
#X connect 42 0 43 0;
#X connect 43 0 45 0;
#X restore 21 128 pd voice-alloc;
#N canvas 650 121 572 285 hooks 0;
#X obj 11 49 r x-centroid;
#X obj 129 47 r y-centroid;
#X obj 248 47 r num-touches;
#X obj 462 50 r sharpness;
#X restore 151 87 pd hooks;
#X obj 25 229 loadbang;
#X obj 25 272 tgl 15 0 empty empty empty 17 7 0 10 -262144 -1 -1 1
1;
#X obj 25 517 clip~ -1 1;
#X obj 25 402 +~;
#X obj 25 456 +~;
#X obj 25 427 *~ 0.75;
#X obj 25 478 *~ 0.75;
#X obj 282 106 s two-y-centroid;
#X obj 406 104 s two-x-centroid;
#X obj 519 107 s two-trigger;
#X obj 610 107 s two-num-touches;
#X obj 25 326 karplus one;
#X obj 40 367 karplus two;
#X obj 95 488 karplus zero;
#X obj 82 406 karplus three;
#X obj 76 557 clip~ -1 1;
#X connect 6 0 8 1;
#X connect 6 0 24 0;
#X connect 7 0 9 0;
#X connect 8 0 24 0;
#X connect 9 0 23 0;
#X connect 9 1 8 0;
#X connect 10 0 22 0;
#X connect 11 0 21 0;
#X connect 14 0 15 0;
#X connect 15 0 25 0;
#X connect 15 0 27 0;
#X connect 15 0 26 0;
#X connect 15 0 28 0;
#X connect 16 0 0 0;
#X connect 17 0 19 0;
#X connect 18 0 20 0;
#X connect 19 0 18 0;
#X connect 20 0 16 0;
#X connect 25 0 17 0;
#X connect 26 0 17 1;
#X connect 27 0 29 0;
#X connect 28 0 18 1;
#X connect 29 0 0 1;
